<?xml version="1.0" encoding="UTF-8" standalone="no"?>
<!-- Created with Inkscape (http://www.inkscape.org/) -->

<svg
   xmlns:dc="http://purl.org/dc/elements/1.1/"
   xmlns:cc="http://creativecommons.org/ns#"
   xmlns:rdf="http://www.w3.org/1999/02/22-rdf-syntax-ns#"
   xmlns:svg="http://www.w3.org/2000/svg"
   xmlns="http://www.w3.org/2000/svg"
   xmlns:sodipodi="http://sodipodi.sourceforge.net/DTD/sodipodi-0.dtd"
   xmlns:inkscape="http://www.inkscape.org/namespaces/inkscape"
   width="100mm"
   height="100mm"
   viewBox="0 0 99.999999 99.999999"
   version="1.1"
   id="svg8"
   inkscape:version="0.92.2 2405546, 2018-03-11"
   sodipodi:docname="watom.svg"
   inkscape:export-filename="/home/zzloiz/Dropbox/l-projects/watom/watom/icon.png"
   inkscape:export-xdpi="16.256001"
   inkscape:export-ydpi="16.256001">
  <defs
     id="defs2" />
  <sodipodi:namedview
     id="base"
     pagecolor="#ffffff"
     bordercolor="#666666"
     borderopacity="1.0"
     inkscape:pageopacity="0.0"
     inkscape:pageshadow="2"
     inkscape:zoom="2.3680208"
     inkscape:cx="188.97638"
     inkscape:cy="188.97638"
     inkscape:document-units="mm"
     inkscape:current-layer="layer1"
     showgrid="true"
     inkscape:snap-grids="true"
     inkscape:snap-intersection-paths="true"
     fit-margin-top="0"
     fit-margin-left="0"
     fit-margin-right="0"
     fit-margin-bottom="0"
     inkscape:window-width="1918"
     inkscape:window-height="1054"
     inkscape:window-x="0"
     inkscape:window-y="1944"
     inkscape:window-maximized="1">
    <inkscape:grid
       type="xygrid"
       id="grid815"
       originx="-1.331084"
       originy="-253.72313" />
  </sodipodi:namedview>
  <metadata
     id="metadata5">
    <rdf:RDF>
      <cc:Work
         rdf:about="">
        <dc:format>image/svg+xml</dc:format>
        <dc:type
           rdf:resource="http://purl.org/dc/dcmitype/StillImage" />
        <dc:title></dc:title>
      </cc:Work>
    </rdf:RDF>
  </metadata>
  <g
     inkscape:label="Layer 1"
     inkscape:groupmode="layer"
     id="layer1"
     transform="translate(-1.3310841,56.723159)">
    <path
       style="color:#000000;clip-rule:nonzero;display:inline;overflow:visible;visibility:visible;opacity:1;isolation:auto;mix-blend-mode:normal;color-interpolation:sRGB;color-interpolation-filters:linearRGB;solid-color:#000000;solid-opacity:1;fill:#dc322f;fill-opacity:1;fill-rule:evenodd;stroke:none;stroke-width:0.09999999;stroke-linecap:butt;stroke-linejoin:round;stroke-miterlimit:4;stroke-dasharray:none;stroke-dashoffset:0;stroke-opacity:1;color-rendering:auto;image-rendering:auto;shape-rendering:auto;text-rendering:auto;enable-background:accumulate"
       d="m 76.422495,-55.405218 -2.417682,4.187555 A 49.533054,49.533054 0 0 0 8.4430751,-32.010085 49.533054,49.533054 0 0 0 18.31143,29.593803 l 0.458725,-13.446839 11.305001,-1.352377 a 30.66332,30.66332 0 0 1 -5.29041,-37.369802 30.66332,30.66332 0 0 1 39.794411,-12.316737 l -2.308964,3.999242 6.854895,-1.32145 11.534022,-2.224487 -2.97237,-14.712835 -0.0016,-9.2e-4 z m 11.566023,14.971897 -1.255619,14.344302 -11.281344,-0.05959 A 30.66332,30.66332 0 0 1 77.895176,8.0881229 30.66332,30.66332 0 0 1 42.568548,22.101297 l 1.926596,-3.336962 -6.515062,1.587875 -12.503157,3.048039 3.271842,13.368588 1.594074,6.508005 2.643421,-4.578538 a 49.533054,49.533054 0 0 0 61.250586,-21.175332 49.533054,49.533054 0 0 0 -6.24833,-57.956293 z"
       id="path4522"
       inkscape:connector-curvature="0" />
    <circle
       style="color:#000000;clip-rule:nonzero;display:inline;overflow:visible;visibility:visible;opacity:1;isolation:auto;mix-blend-mode:normal;color-interpolation:sRGB;color-interpolation-filters:linearRGB;solid-color:#000000;solid-opacity:1;fill:#dc322f;fill-opacity:1;fill-rule:evenodd;stroke:none;stroke-width:0.09999999;stroke-linecap:butt;stroke-linejoin:round;stroke-miterlimit:4;stroke-dasharray:none;stroke-dashoffset:0;stroke-opacity:1;color-rendering:auto;image-rendering:auto;shape-rendering:auto;text-rendering:auto;enable-background:accumulate"
       id="path4563"
       cx="41.092442"
       cy="-31.487968"
       r="21.228453"
       transform="rotate(30.000001)" />
    <g
       id="g829"
       transform="translate(0.50494331)">
      <path
         style="color:#000000;clip-rule:nonzero;display:inline;overflow:visible;visibility:visible;opacity:1;isolation:auto;mix-blend-mode:normal;color-interpolation:sRGB;color-interpolation-filters:linearRGB;solid-color:#000000;solid-opacity:1;fill:#dc322f;fill-opacity:1;fill-rule:evenodd;stroke:none;stroke-width:0.09999999;stroke-linecap:butt;stroke-linejoin:round;stroke-miterlimit:4;stroke-dasharray:none;stroke-dashoffset:0;stroke-opacity:1;color-rendering:auto;image-rendering:auto;shape-rendering:auto;text-rendering:auto;enable-background:accumulate"
         d="m 75.917552,-55.405218 -2.417682,4.187555 A 49.533054,49.533054 0 0 0 7.9381318,-32.010085 49.533054,49.533054 0 0 0 17.806487,29.593803 l 0.458725,-13.446839 11.305001,-1.352377 a 30.66332,30.66332 0 0 1 -5.29041,-37.369802 30.66332,30.66332 0 0 1 39.794411,-12.316737 l -2.308964,3.999242 6.854895,-1.32145 11.534022,-2.224487 -2.97237,-14.712835 -0.0016,-9.2e-4 z m 11.566023,14.971897 -1.255619,14.344302 -11.281344,-0.05959 A 30.66332,30.66332 0 0 1 77.390233,8.0881234 30.66332,30.66332 0 0 1 42.063605,22.101297 l 1.926596,-3.336962 -6.515062,1.587875 -12.503157,3.048039 3.271842,13.368588 1.594074,6.508005 2.643421,-4.578538 a 49.533054,49.533054 0 0 0 61.250586,-21.175332 49.533054,49.533054 0 0 0 -6.24833,-57.956293 z"
         id="path823"
         inkscape:connector-curvature="0" />
      <circle
         style="color:#000000;clip-rule:nonzero;display:inline;overflow:visible;visibility:visible;opacity:1;isolation:auto;mix-blend-mode:normal;color-interpolation:sRGB;color-interpolation-filters:linearRGB;solid-color:#000000;solid-opacity:1;fill:#dc322f;fill-opacity:1;fill-rule:evenodd;stroke:none;stroke-width:0.09999999;stroke-linecap:butt;stroke-linejoin:round;stroke-miterlimit:4;stroke-dasharray:none;stroke-dashoffset:0;stroke-opacity:1;color-rendering:auto;image-rendering:auto;shape-rendering:auto;text-rendering:auto;enable-background:accumulate"
         id="circle825"
         cx="40.402637"
         cy="-31.69047"
         r="21.228453"
         transform="rotate(30.000001)" />
    </g>
  </g>
</svg>
